<?xml version="1.0" standalone="no"?>
<!DOCTYPE svg PUBLIC "-//W3C//DTD SVG 20010904//EN"
 "http://www.w3.org/TR/2001/REC-SVG-20010904/DTD/svg10.dtd">
<svg version="1.0" xmlns="http://www.w3.org/2000/svg"
 width="512.000000pt" height="512.000000pt" viewBox="0 0 512.000000 512.000000"
 preserveAspectRatio="xMidYMid meet">

<g transform="translate(0.000000,512.000000) scale(0.100000,-0.100000)"
fill="#ffffff" stroke="none">
<path d="M1675 5109 c-74 -21 -79 -33 -279 -636 l-187 -562 -562 -186 c-540
-178 -563 -187 -598 -224 -51 -52 -59 -105 -27 -168 12 -26 34 -55 48 -65 14
-10 236 -91 495 -181 l470 -164 3 -1101 2 -1102 -135 0 c-155 0 -188 -9 -230
-64 -59 -78 -34 -189 55 -234 39 -19 59 -22 177 -22 l133 0 0 -133 c0 -118 3
-138 23 -177 42 -84 141 -111 225 -60 55 34 66 69 70 228 l4 142 1519 0 1519
0 0 -133 c0 -118 3 -138 23 -177 42 -84 141 -111 225 -60 55 34 66 69 70 227
l4 141 141 4 c158 4 193 15 227 70 51 84 24 183 -60 226 -39 19 -59 22 -177
22 l-133 0 0 1519 0 1519 143 4 c158 4 193 15 227 70 51 84 24 183 -60 226
-39 19 -59 22 -177 22 l-133 0 0 133 c0 118 -3 138 -22 177 -17 33 -35 51 -68
68 -76 38 -145 23 -196 -44 -29 -37 -29 -40 -32 -186 l-3 -148 -1102 2 -1101
3 -163 470 c-90 259 -172 481 -181 495 -21 29 -97 70 -127 69 -11 0 -34 -5
-50 -10z m342 -1472 c155 -446 281 -812 280 -814 -3 -2 -1567 540 -1627 563
-8 4 156 63 364 133 348 117 381 130 411 163 27 29 52 94 156 406 68 204 126
369 129 366 2 -3 132 -371 287 -817z m803 112 c-14 -5 -105 -89 -202 -186
-169 -169 -177 -176 -186 -152 -5 13 -32 90 -61 171 -28 81 -54 154 -57 163
-5 13 26 15 262 14 187 0 261 -3 244 -10z m1580 -736 c-1 -674 -2 -745 -16
-713 -21 50 -1385 1416 -1439 1441 -40 18 -31 19 708 19 l747 0 0 -747z m-950
-208 l565 -565 -568 -568 -567 -567 -567 567 -568 568 161 161 162 162 240
-82 c278 -95 289 -96 358 -27 69 69 68 80 -27 358 l-82 240 159 159 c87 87
161 159 164 159 3 0 259 -254 570 -565z m-1900 -61 c85 -30 161 -56 169 -59 9
-4 -47 -67 -166 -188 -112 -112 -183 -192 -186 -207 -2 -14 -5 98 -6 249 -1
256 0 273 17 266 9 -4 87 -31 172 -61z m541 -1301 c446 -444 707 -698 729
-707 32 -14 -39 -15 -712 -16 l-748 0 0 748 c0 738 1 747 19 707 13 -27 240
-261 712 -732z m2309 22 l0 -745 -747 0 -748 0 40 20 c56 28 1431 1405 1440
1443 4 15 9 27 11 27 2 0 4 -335 4 -745z"/>
<path d="M2894 2306 c-80 -35 -113 -136 -72 -216 71 -138 267 -104 293 52 10
59 -27 126 -85 156 -50 25 -91 27 -136 8z"/>
</g>
</svg>
